<?xml version="1.0" encoding="iso-8859-1"?>
<!-- Generator: Adobe Illustrator 19.0.0, SVG Export Plug-In . SVG Version: 6.00 Build 0)  -->
<svg version="1.1" id="Layer_1" xmlns="http://www.w3.org/2000/svg" xmlns:xlink="http://www.w3.org/1999/xlink" x="0px" y="0px"
	 viewBox="0 0 297 297" style="enable-background:new 0 0 297 297;" xml:space="preserve">
<g>
	<g>
		<g>
			<g>
				<circle style="fill:#E67E22;" cx="148.5" cy="148.5" r="148.5"/>
			</g>
		</g>
	</g>
	<path style="fill:#C1611A;" d="M296.994,148.006L224.577,75.59L75.609,224.558l72.436,72.436c0.152,0,0.302,0.006,0.454,0.006
		c82.014,0,148.5-66.486,148.5-148.5C297,148.335,296.994,148.171,296.994,148.006z"/>
	<g>
		<path style="fill:#662621;" d="M93.334,66h110.333C218.762,66,231,78.238,231,93.334v110.333C231,218.762,218.762,231,203.667,231
			H93.334C78.238,231,66,218.762,66,203.667V93.334C66,78.238,78.238,66,93.334,66z"/>
	</g>
	<g>
		<path style="fill:#FFCD02;" d="M153.212,95.386l15.049,27.35c0.772,1.403,2.129,2.389,3.703,2.69l30.662,5.861
			c4.164,0.796,5.813,5.872,2.912,8.964l-21.361,22.764c-1.096,1.168-1.614,2.764-1.414,4.353l3.901,30.972
			c0.53,4.206-3.788,7.343-7.625,5.54l-28.251-13.281c-1.449-0.681-3.127-0.681-4.577,0L117.96,203.88
			c-3.837,1.804-8.155-1.334-7.625-5.54l3.901-30.972c0.2-1.589-0.318-3.185-1.414-4.353l-21.361-22.764
			c-2.901-3.092-1.252-8.168,2.912-8.964l30.662-5.861c1.573-0.301,2.93-1.287,3.703-2.69l15.049-27.35
			C145.831,91.671,151.168,91.671,153.212,95.386z"/>
	</g>
</g>
<g>
</g>
<g>
</g>
<g>
</g>
<g>
</g>
<g>
</g>
<g>
</g>
<g>
</g>
<g>
</g>
<g>
</g>
<g>
</g>
<g>
</g>
<g>
</g>
<g>
</g>
<g>
</g>
<g>
</g>
</svg>
