<?xml version="1.0" encoding="iso-8859-1"?>
<!-- Generator: Adobe Illustrator 17.1.0, SVG Export Plug-In . SVG Version: 6.00 Build 0)  -->
<!DOCTYPE svg PUBLIC "-//W3C//DTD SVG 1.1//EN" "http://www.w3.org/Graphics/SVG/1.1/DTD/svg11.dtd">
<svg version="1.1" id="Capa_1" xmlns="http://www.w3.org/2000/svg" xmlns:xlink="http://www.w3.org/1999/xlink" x="0px" y="0px"
	 viewBox="0 0 411.322 411.322" style="enable-background:new 0 0 411.322 411.322;" xml:space="preserve">
<g>
	<path d="M166.07,44.337C166.07,19.89,146.18,0,121.732,0C97.285,0,77.395,19.89,77.395,44.337c0,24.448,19.89,44.338,44.337,44.338
		C146.18,88.675,166.07,68.785,166.07,44.337z"/>
	<path d="M332.984,100.651c-0.186-3.581-2.31-6.707-5.299-8.382c0.03-0.312,0.048-0.628,0.048-0.948v-6
		c0-5.048-3.764-9.224-8.631-9.895c-0.469-2.588-1.662-4.978-3.516-6.919c-2.579-2.701-6.076-4.19-9.848-4.194l-119.743-0.108
		c-3.956,0-7.544,1.665-10.114,4.321l-42.255,42.928c-3.214,3.266-4.995,8.559-4.712,13.339c-0.01,0.206-0.032,0.408-0.033,0.616
		l-0.139,139.906c-0.003,3.73,1.453,7.245,4.1,9.895c2.648,2.65,6.161,4.11,9.891,4.11h3c7.72,0,14-6.28,14-14v-75.208
		c8.572,9.612,23.394,24.226,31.079,31.711l14.921,171.937c0.428,4.942,4.359,8.888,9.188,9.469
		c0.894,4.604,4.952,8.092,9.813,8.092h14c5.023,0,9.182-3.727,9.884-8.559c1.459-0.509,2.792-1.349,3.858-2.484
		c1.816-1.933,2.763-4.579,2.596-7.258l-10.179-163.74c-0.152-2.445-0.018-6.569,0.293-9.001l0.2-1.554
		c0.024-0.192,0.368-0.488,0.567-0.488c0.139,0.003,3.444,0.072,8.7,0.072c39.783,0,63.197-3.241,69.589-9.634
		c3.856-3.856,9.051-14.283,9.633-60.114C334.186,124.135,332.995,100.883,332.984,100.651z M286.343,96.322
		c-0.873,1.593-1.293,3.403-1.179,5.283c1.513,24.997,2.591,52.657,2.143,62.147c-11.06,0.258-33.117,1.274-38.595,1.531
		l-30.734-25.648c-2.255-1.882-5.188-6.124-6.152-8.9l-11.957-34.413H286.343z M323.875,148.435
		c-0.569,44.795-5.685,52.15-6.704,53.17c-2.491,2.49-18.461,6.705-62.519,6.705c-5.14,0-8.455-0.069-8.487-0.07l-0.214-0.002
		c-5.22,0-9.825,4.05-10.485,9.217l-0.2,1.554c-0.39,3.048-0.545,7.834-0.354,10.894l9.988,160.585c0,0-25.5,0.833-29.338,0.859
		L200.59,218.828c-0.105-1.206,0.759-3.43,1.651-4.25l40.192-36.942c1.163-1.068,3.954-2.233,5.53-2.308
		c0.345-0.016,34.534-1.636,43.431-1.636c1.428,0,2.815-0.604,3.808-1.657c1.81-1.923,3.005-3.193,1.591-38.279
		c-0.614-15.23-1.505-30.359-1.633-32.499l6.989-0.073c0.517,0.083,1.043,0.138,1.583,0.138h14c0.86,0,1.691-0.121,2.488-0.326
		l2.564-0.027c0.069,0,0.209,0.131,0.213,0.201C323.009,101.398,324.182,124.327,323.875,148.435z"/>
</g>
<g>
</g>
<g>
</g>
<g>
</g>
<g>
</g>
<g>
</g>
<g>
</g>
<g>
</g>
<g>
</g>
<g>
</g>
<g>
</g>
<g>
</g>
<g>
</g>
<g>
</g>
<g>
</g>
<g>
</g>
</svg>
