<?xml version="1.0" encoding="iso-8859-1"?>
<!-- Generator: Adobe Illustrator 18.0.0, SVG Export Plug-In . SVG Version: 6.00 Build 0)  -->
<!DOCTYPE svg PUBLIC "-//W3C//DTD SVG 1.1//EN" "http://www.w3.org/Graphics/SVG/1.1/DTD/svg11.dtd">
<svg version="1.1" id="Capa_1" xmlns="http://www.w3.org/2000/svg" xmlns:xlink="http://www.w3.org/1999/xlink" x="0px" y="0px"
	 viewBox="0 0 447.131 447.131" style="enable-background:new 0 0 447.131 447.131;" xml:space="preserve">
<g>
	<path d="M213.17,192.997h20.79c2.761,0,5-2.239,5-5c0-2.761-2.239-5-5-5h-20.79c-2.761,0-5,2.239-5,5
		C208.17,190.758,210.409,192.997,213.17,192.997z"/>
	<path d="M178.747,139.135c-1.32,0-2.61,0.53-3.54,1.46c-0.93,0.93-1.47,2.22-1.47,3.54c0,1.31,0.54,2.6,1.47,3.53
		c0.93,0.93,2.22,1.47,3.54,1.47c1.31,0,2.6-0.54,3.53-1.47c0.93-0.93,1.47-2.22,1.47-3.53c0-1.32-0.54-2.61-1.47-3.54
		C181.347,139.665,180.057,139.135,178.747,139.135z"/>
	<path d="M268.387,149.135c1.32,0,2.61-0.54,3.54-1.47c0.93-0.93,1.46-2.22,1.46-3.53c0-1.32-0.53-2.61-1.46-3.54
		c-0.93-0.93-2.22-1.46-3.54-1.46c-1.31,0-2.6,0.53-3.53,1.46c-0.93,0.93-1.47,2.22-1.47,3.54c0,1.31,0.54,2.6,1.47,3.53
		C265.787,148.595,267.077,149.135,268.387,149.135z"/>
	<path d="M205.526,252.082h36.078c8.809,0,15.976-7.167,15.976-15.976V217.02c0-8.81-7.167-15.977-15.976-15.977h-36.078
		c-8.809,0-15.975,7.167-15.975,15.977v19.086C189.551,244.915,196.717,252.082,205.526,252.082z M229.588,231.563v10.519h-12.046
		v-10.519H229.588z M217.542,221.563v-10.52h12.046v10.52H217.542z M247.58,217.02v19.086c0,3.295-2.681,5.976-5.976,5.976h-2.016
		v-10.519h0.621c2.761,0,5-2.239,5-5c0-2.761-2.239-5-5-5h-0.621v-10.52h2.016C244.899,211.043,247.58,213.724,247.58,217.02z
		 M199.551,217.02c0-3.295,2.68-5.977,5.975-5.977h2.017v10.52h-0.62c-2.761,0-5,2.239-5,5c0,2.761,2.239,5,5,5h0.62v10.519h-2.017
		c-3.294,0-5.975-2.681-5.975-5.976V217.02z"/>
	<path d="M414.17,328.469c-1.708-13.519-13.91-26.357-36.281-38.171c-15.387-8.126-30.208-12.9-32.188-13.522l-47.736-32.741
		c9.77-14.318,15.687-30.261,19.246-43.681c1.236,0.288,2.572,0.432,4.124,0.432c1.757,0,3.782-0.172,6.217-0.488
		c13.482-1.746,17.152-25.12,18.14-38.897c0,0,1.518-21.107-1.738-26.523c0.941-6.332,2.94-25.145-2.387-46.413
		c-5.888-23.51-22.123-54.295-65.944-68.643C272.568,13.505,261.585,0,223.565,0c-38.021,0-49.002,13.505-52.058,19.821
		c-43.821,14.348-60.056,45.133-65.943,68.643c-5.326,21.267-3.328,40.08-2.386,46.412c-3.256,5.417-1.738,26.524-1.738,26.524
		c0.989,13.778,4.66,37.152,18.141,38.897c2.435,0.316,4.458,0.487,6.216,0.487c1.552,0,2.888-0.145,4.125-0.433
		c3.561,13.427,9.482,29.38,19.261,43.704l-47.749,32.718c-1.969,0.619-16.797,5.394-32.19,13.523
		c-22.372,11.814-34.574,24.652-36.283,38.171c-1.846,5.01-13.668,38.216-13.668,67.043v46.62c0,2.761,2.239,5,5,5h398.548
		c2.761,0,5-2.239,5-5v-46.62C427.839,366.685,416.017,333.478,414.17,328.469z M338.514,283.972
		c-2.406,13.861-24.699,27.956-59.995,35.363l15.576-65.829L338.514,283.972z M267.775,321.313
		c-13.278,2.119-19.786,3.34-44.21,3.34c-24.423,0-30.932-1.221-44.21-3.34l-13.916-58.789c0.394,0.343,2.124,1.812,2.124,1.812
		c13.553,11.382,32.113,26.969,56.002,26.969c23.886,0,42.447-15.586,56-26.967c0,0,1.727-1.467,2.118-1.808L267.775,321.313z
		 M335.135,139.688c1.939,2.168,0.582,20.998,0.582,20.998c-1.421,19.822-6.381,29.298-9.45,29.695
		c-3.691,0.479-5.513,0.554-6.763,0.246c2.394-11.559,2.919-19.712,2.971-20.607c0.005-0.096,0.008-25.031,0.008-25.031
		c1.729-3.02,5.726-6.001,9.896-6.007c0.926-0.022,2.186,0.113,2.715,0.659C335.109,139.655,335.121,139.673,335.135,139.688z
		 M120.864,190.38c-3.068-0.397-8.028-9.873-9.451-29.696c0,0-1.357-18.828,0.582-20.997c0.016-0.016,0.028-0.035,0.043-0.05
		c0.529-0.545,1.741-0.696,2.71-0.657c4.17,0.006,8.168,2.987,9.897,6.008c0,0,0.003,24.934,0.008,25.03
		c0.052,0.895,0.578,9.048,2.971,20.607C126.377,190.934,124.555,190.858,120.864,190.38z M124.647,121.423v10.207
		c-3.064-1.671-6.483-2.644-9.883-2.649c-0.01,0-0.02,0-0.029,0c-0.757,0-1.476,0.055-2.176,0.137
		c-0.761-7.837-1.266-22.366,2.705-38.225c7.804-31.163,28.499-52.108,61.512-62.253c1.724-0.53,3.029-1.947,3.415-3.708
		C180.224,24.782,185.188,10,223.565,10c37.324,0,43.004,13.923,43.388,15.01c0.318,1.847,1.599,3.075,3.402,3.629
		c32.887,10.106,53.554,30.938,61.427,61.916c4.045,15.919,3.543,30.63,2.783,38.549c-0.708-0.08-1.435-0.131-2.2-0.124
		c-3.399,0.005-6.817,0.978-9.881,2.648v-10.206c0-51.455-44.375-93.317-98.918-93.317
		C169.022,28.105,124.647,69.967,124.647,121.423z M289.936,129.19c-2.229-2.277-5.1-3.495-8.303-3.523
		c-9.924-0.086-29.219-0.001-29.413,0c-2.761,0.013-4.99,2.261-4.978,5.022c0.012,2.754,2.249,4.978,5,4.978
		c0.008,0,0.015,0,0.023,0c0.193-0.001,19.425-0.087,29.281,0c2.755,0.024,3.606,6.967,3.59,9.357
		c-0.024,2.38,1.623,4.383,3.848,4.909c-5.174,2.434-10.945,3.802-17.032,3.802c-17.665,0-22.403-0.602-28.731-7.163
		c-1.179-6.021-7.026-10.885-14.655-12.395v-12.754c0-2.761-2.239-5-5-5c-2.761,0-5,2.239-5,5v12.754
		c-7.634,1.511-13.484,6.379-14.658,12.405c-5.978,6.249-10.224,7.153-28.729,7.153c-6.092,0-11.867-1.369-17.044-3.807
		c2.225-0.521,3.877-2.524,3.86-4.904c-0.017-2.39,0.834-9.333,3.59-9.356c9.856-0.087,29.086-0.002,29.28,0
		c0.008,0,0.015,0,0.023,0c2.751,0,4.987-2.224,4.999-4.978c0.012-2.761-2.216-5.01-4.978-5.022c-0.194,0-19.489-0.085-29.412,0
		c-3.204,0.028-6.075,1.246-8.304,3.523c-5.184,5.298-5.212,14.874-5.198,15.949c0.006,0.475,0.099,0.924,0.229,1.358
		c-10.337-7.23-17.133-19.191-17.2-32.721c4.134-42.37,42.262-75.671,88.541-75.671c46.278,0,84.406,33.301,88.54,75.671
		c-0.067,13.529-6.863,25.49-17.199,32.721c0.129-0.434,0.222-0.883,0.228-1.358C295.15,144.064,295.121,134.488,289.936,129.19z
		 M134.647,169.567v-26.492c9.13,12.51,23.893,20.661,40.532,20.661c20.19,0,27.53-0.898,37.197-11.576
		c0.076-0.084,1.292-1.495,1.292-3.355c0-2.018,4.25-5.129,9.897-5.129c5.647,0,9.896,3.112,9.896,5.129
		c0,2.313,1.225,3.278,1.294,3.355c9.622,10.628,17.405,11.576,37.196,11.576c16.638,0,31.401-8.15,40.531-20.661v26.491
		c-0.213,3.036-4.557,57.92-38.405,86.322c0,0-26.87,25.418-50.513,25.418c-23.643,0-50.513-25.417-50.513-25.417
		C139.199,227.481,134.858,172.582,134.647,169.567z M153.037,253.537l15.574,65.797c-35.296-7.408-57.587-21.5-59.993-35.361
		L153.037,253.537z M42.534,331.412c0.154-0.408,0.255-0.836,0.299-1.27c1.911-19.012,37.524-35.408,56.451-42.11
		c3.367,12.457,16.354,23.696,37.42,32.146c23.254,9.327,54.602,14.453,86.861,14.453c32.26,0,63.607-5.126,86.861-14.453
		c21.067-8.45,34.053-19.689,37.421-32.146c18.926,6.702,54.539,23.098,56.449,42.11c0.044,0.434,0.145,0.861,0.299,1.27
		c0.124,0.33,11.782,31.452,13.119,59.1h-61.879c7.357-23.837,16.986-40.815,28.021-49.302c2.189-1.683,2.599-4.822,0.916-7.011
		c-1.683-2.189-4.823-2.598-7.011-0.915c-13.337,10.257-24.218,29.504-32.371,57.229H101.741
		c-8.156-27.727-19.037-46.974-32.372-57.229c-2.188-1.683-5.328-1.274-7.011,0.915c-1.684,2.189-1.273,5.328,0.916,7.011
		c11.033,8.485,20.663,25.463,28.022,49.302h-61.88C30.753,362.863,42.41,331.742,42.534,331.412z M29.291,437.131v-36.62h388.548
		v36.62H29.291z"/>
</g>
<g>
</g>
<g>
</g>
<g>
</g>
<g>
</g>
<g>
</g>
<g>
</g>
<g>
</g>
<g>
</g>
<g>
</g>
<g>
</g>
<g>
</g>
<g>
</g>
<g>
</g>
<g>
</g>
<g>
</g>
</svg>
